<svg version="1.1" xmlns="http://www.w3.org/2000/svg" xmlns:xlink="http://www.w3.org/1999/xlink" x="0px" y="0px"
	 width="432px" height="433px" viewBox="0 0 432 433" enable-background="new 0 0 432 433" xml:space="preserve">
<g>
	<defs>
		<rect width="432" height="433"/>
	</defs>
	<g>
		<defs>
			<rect width="432" height="433"/>
		</defs>
		<path fill="#FFFFFF" d="M216,432c119.294,0,216-96.707,216-216C432,96.706,335.294,0,216,0
			S0,96.706,0,216C0,335.293,96.706,432,216,432"/>
	</g>
	<g>
		<text transform="matrix(1 0 0 1 178.5898 404.4307)"><tspan x="0" y="0" fill="#5D227F" font-family="'National-RegularItalic'" font-size="22">St</tspan><tspan x="17.71" y="0" fill="#5D227F" font-family="'National-RegularItalic'" font-size="22">r</tspan><tspan x="25.168" y="0" fill="#5D227F" font-family="'National-RegularItalic'" font-size="22">ategy</tspan></text>
	</g>
	<g>
		<defs>
			<rect width="432" height="433"/>
		</defs>
		<g opacity="0.08">
			<g>
				<defs>
					<rect x="55.416" y="64.303" width="220.112" height="204.112"/>
				</defs>
				<path fill="#58504D" d="M165.472,267.415c55.812,0,101.057-45.244,101.057-101.056
					S221.284,65.303,165.472,65.303c-55.812,0-101.056,45.244-101.056,101.056S109.66,267.415,165.472,267.415"/>
			</g>
		</g>
		<g opacity="0.08">
			<g>
				<defs>
					<rect x="55.416" y="163.585" width="220.112" height="204.112"/>
				</defs>
				<path fill="#58504D" d="M165.472,366.697c55.812,0,101.057-45.244,101.057-101.056
					c0-55.812-45.244-101.057-101.057-101.057c-55.812,0-101.056,45.245-101.056,101.057
					C64.416,321.453,109.66,366.697,165.472,366.697"/>
			</g>
		</g>
		<g opacity="0.08">
			<g>
				<defs>
					<rect x="156.472" y="64.303" width="220.112" height="204.112"/>
				</defs>
				<path fill="#58504D" d="M266.528,267.415c55.812,0,101.056-45.244,101.056-101.056
					S322.34,65.303,266.528,65.303c-55.812,0-101.057,45.244-101.057,101.056S210.716,267.415,266.528,267.415"/>
			</g>
		</g>
		<g opacity="0.08">
			<g>
				<defs>
					<rect x="156.472" y="163.585" width="220.112" height="204.112"/>
				</defs>
				<path fill="#58504D" d="M266.528,366.697c55.812,0,101.056-45.244,101.056-101.056
					c0-55.812-45.244-101.057-101.056-101.057c-55.812,0-101.057,45.245-101.057,101.057
					C165.472,321.453,210.716,366.697,266.528,366.697"/>
			</g>
		</g>
	</g>
	<g>
		<text transform="matrix(1 0 0 1 82.8359 152.085)"><tspan x="0" y="0" fill="#5D227F" font-family="'National-RegularItalic'" font-size="22">C</tspan><tspan x="12.1" y="0" fill="#5D227F" font-family="'National-RegularItalic'" font-size="22">ontent</tspan></text>
	</g>
	<g>
		<text transform="matrix(1 0 0 1 279.0322 152.085)" fill="#5D227F" font-family="'National-RegularItalic'" font-size="22">Design</text>
	</g>
	<g>
		<text transform="matrix(1 0 0 1 111.9199 292.8633)"><tspan x="0" y="0" fill="#5D227F" font-family="'National-RegularItalic'" font-size="22" letter-spacing="-1">T</tspan><tspan x="9.46" y="0" fill="#5D227F" font-family="'National-RegularItalic'" font-size="22">ech</tspan></text>
	</g>
	<g>
		<text transform="matrix(1 0 0 1 279.0322 292.8633)" fill="#5D227F" font-family="'National-RegularItalic'" font-size="22">Video</text>
	</g>
	<g>
		<defs>
			<rect width="432" height="433"/>
		</defs>
		<path fill="#5D227F" d="M234.055,209.181c0,2.251-0.879,4.367-2.474,5.96L216,230.725l-15.589-15.593
			c-1.59-1.59-2.466-3.703-2.466-5.951c0-4.64,3.775-8.415,8.414-8.415c2.248,0,4.362,0.876,5.951,2.465
			c1.589,1.59,2.464,3.703,2.464,5.95c0,0.677,0.549,1.225,1.226,1.225s1.225-0.548,1.225-1.225c0.001-4.64,3.776-8.415,8.415-8.415
			C230.28,200.766,234.055,204.541,234.055,209.181 M236.505,209.181c0-5.991-4.874-10.865-10.865-10.865
			c-4.182,0-7.821,2.376-9.636,5.849c-0.506-0.971-1.164-1.87-1.961-2.666c-2.053-2.053-4.78-3.183-7.684-3.183
			c-5.991,0-10.864,4.874-10.864,10.865c0,2.902,1.132,5.631,3.185,7.683l16.454,16.46c0.229,0.23,0.541,0.359,0.866,0.359
			c0.324,0,0.637-0.129,0.866-0.359l16.445-16.45C235.37,214.82,236.505,212.087,236.505,209.181"/>
	</g>
</g>
</svg>
