<svg version="1.1" xmlns="http://www.w3.org/2000/svg" xmlns:xlink="http://www.w3.org/1999/xlink" x="0px" y="0px"
	 width="110.04px" height="32.201px" viewBox="0 0 110.04 32.201" enable-background="new 0 0 110.04 32.201" xml:space="preserve">
<g>
	<defs>
		<rect width="110.04" height="32.201"/>
	</defs>
	<path fill="#FFFFFF" d="M15.35,19.776c2.721,0.325,2.965,0.65,2.965,2.762v7.104
		c-0.771,0.407-1.503,0.488-2.518,0.488c-5.036,0-7.391-6.253-7.391-13.156c0-6.863,2.193-12.263,7.391-12.263
		c3.817,0,6.01,2.639,7.025,7.471h1.989l-0.122-7.105c-2.354-1.544-5.481-2.397-9.177-2.397C6.944,2.681,0,8.569,0,18.07
		c0,7.959,5.076,14.132,14.7,14.132c4.345,0,8.243-0.935,11.046-2.722V18.07H15.35V19.776z"/>
	<path fill="#FFFFFF" d="M38.515,27.817c0,1.745,0.934,1.907,3.249,2.192v1.583H28.769V30.01
		c1.624-0.122,2.273-0.285,2.273-1.584V14.173l-2.232-1.381v-1.137L37.297,9.3h1.38l-0.162,6.254
		C40.18,10.802,41.601,9.3,44.159,9.3c0.934,0,1.624,0.284,2.03,0.69v5.645h-0.975c-2.559,0-4.832,0.081-6.7,1.462V27.817z"/>
	<path fill="#FFFFFF" d="M72.235,3.737c0-2.031,1.461-3.736,3.979-3.736c2.438,0,3.98,1.705,3.98,3.736
		c0,2.03-1.543,3.777-3.98,3.777C73.696,7.514,72.235,5.767,72.235,3.737 M79.869,28.426c0,1.299,0.65,1.462,2.274,1.584v1.584
		H70.123V30.01c1.624-0.122,2.274-0.285,2.274-1.584V14.173l-2.233-1.381v-1.137L78.61,9.3h1.259V28.426z"/>
	<path fill="#FFFFFF" d="M100.254,16.568c0-1.787-0.609-2.843-2.721-2.843
		c-1.299,0-2.437,0.366-3.492,0.894v13.806c0,1.3,0.568,1.462,2.193,1.584v1.584H84.295V30.01c1.624-0.122,2.274-0.284,2.274-1.584
		V14.173l-2.234-1.381v-1.137L92.822,9.3h1.381l-0.162,4.061c1.543-1.949,3.897-4.061,7.553-4.061c3.939,0,6.172,2.193,6.172,6.66
		v12.466c0,1.3,0.65,1.462,2.274,1.584v1.584H98.102V30.01c1.624-0.122,2.152-0.284,2.152-1.584V16.568z"/>
	<path fill="#FFFFFF" d="M58.472,27.734c-0.649,0.366-1.137,0.569-1.786,0.569
		c-2.03,0-2.803-1.705-2.803-3.776c0-2.315,0.935-3.248,2.356-3.776l2.232-0.853V27.734z M63.414,32.201
		c2.026,0,3.732-0.514,4.723-1.109v-1.083c-1.624-0.12-2.273-0.283-2.273-1.582V16.365c0-5.279-3.411-7.065-9.097-7.065
		c-4.914,0-8.73,1.705-8.73,5.4c0,1.462,0.812,2.438,1.988,2.843l4.335-1.525c-0.113-0.65-0.191-1.289-0.191-1.926
		c0-1.908,0.609-3.208,2.193-3.208c1.583,0,2.11,1.259,2.11,3.127v4.142l-6.457,2.274c-2.883,1.015-5.359,2.639-5.359,6.172
		c0,3.491,2.396,5.603,5.807,5.603c3.005,0,4.954-1.584,6.132-3.289C58.968,30.877,60.513,32.201,63.414,32.201"/>
</g>
</svg>
