<?xml version="1.0" encoding="utf-8"?>
<!-- Generator: Adobe Illustrator 15.0.0, SVG Export Plug-In . SVG Version: 6.00 Build 0)  -->
<!DOCTYPE svg PUBLIC "-//W3C//DTD SVG 1.1//EN" "http://www.w3.org/Graphics/SVG/1.1/DTD/svg11.dtd">
<svg version="1.1" id="Layer_1" xmlns="http://www.w3.org/2000/svg" xmlns:xlink="http://www.w3.org/1999/xlink" x="0px" y="0px"
	 width="36px" height="30px" viewBox="4 0 36 30" enable-background="new 4 0 36 30" xml:space="preserve">
<g>
	<path fill="#ABA7A6" d="M37,6H7C5.343,6,4,4.657,4,3s1.343-3,3-3h30c1.657,0,3,1.343,3,3S38.657,6,37,6z"/>
	<path fill="#ABA7A6" d="M37,18H7c-1.657,0-3-1.343-3-3c0-1.657,1.343-3,3-3h30c1.657,0,3,1.343,3,3C40,16.657,38.657,18,37,18z"/>
	<path fill="#ABA7A6" d="M37,30H7c-1.657,0-3-1.343-3-3s1.343-3,3-3h30c1.657,0,3,1.343,3,3S38.657,30,37,30z"/>
</g>
</svg>
