<?xml version="1.0" encoding="utf-8"?>
<!-- Generator: Adobe Illustrator 15.0.0, SVG Export Plug-In . SVG Version: 6.00 Build 0)  -->
<!DOCTYPE svg PUBLIC "-//W3C//DTD SVG 1.1//EN" "http://www.w3.org/Graphics/SVG/1.1/DTD/svg11.dtd">
<svg version="1.1" id="Layer_1" xmlns="http://www.w3.org/2000/svg" xmlns:xlink="http://www.w3.org/1999/xlink" x="0px" y="0px"
	 width="54.953px" height="67px" viewBox="0 0 54.953 67" enable-background="new 0 0 54.953 67" xml:space="preserve">
<g>
	<path fill="#5D2B7F" d="M35.716,35.1v-0.57c-0.66,0.299-1.284,0.655-1.864,1.066c-0.261,0.222-0.53,0.431-0.808,0.632
		c-2.43,2.082-3.922,5.162-3.926,8.548v0.586C33.087,43.563,35.714,39.6,35.716,35.1 M25.834,45.361v-0.57
		c0-3.391-1.493-6.477-3.926-8.562c-0.277-0.201-0.548-0.412-0.81-0.633c-0.579-0.411-1.203-0.768-1.862-1.066v0.57
		C19.236,39.6,21.865,43.563,25.834,45.361 M19.236,13.279v0.57c0,3.392,1.492,6.477,3.925,8.561
		c0.278,0.203,0.549,0.414,0.811,0.635c0.58,0.41,1.203,0.767,1.862,1.066V23.54C25.834,19.039,23.205,15.077,19.236,13.279
		 M29.119,23.523v0.587c0.658-0.299,1.282-0.655,1.861-1.066c0.262-0.22,0.533-0.431,0.811-0.633
		c2.433-2.085,3.924-5.17,3.926-8.562v-0.57C31.751,15.074,29.125,19.03,29.119,23.523 M23.971,33.669
		c0.58,0.412,1.203,0.768,1.863,1.067v-0.57c0-3.391-1.493-6.476-3.925-8.562c-0.279-0.201-0.55-0.412-0.811-0.635
		c-0.58-0.409-1.203-0.766-1.862-1.064v0.57c0,3.392,1.493,6.478,3.927,8.562C23.44,33.239,23.71,33.448,23.971,33.669
		 M35.716,23.904c-0.66,0.299-1.283,0.655-1.863,1.065c-0.261,0.222-0.531,0.432-0.809,0.634c-2.43,2.082-3.922,5.161-3.926,8.547
		v0.586c0.658-0.3,1.282-0.655,1.862-1.067c0.261-0.221,0.531-0.43,0.808-0.632c2.434-2.085,3.926-5.171,3.928-8.562V23.904z
		 M39,6.891v4.095v2.864v7.762v2.863v7.761v0.134v2.73c0,6.311-4.004,11.807-9.881,13.788v16.471c0,0.905-0.735,1.642-1.643,1.642
		c-0.906,0-1.642-0.736-1.642-1.642V48.888c-5.878-1.981-9.881-7.477-9.881-13.788v-2.73v-0.134v-7.761v-2.863V13.85v-2.864V6.891
		c0-0.905,0.734-1.641,1.641-1.641c0.907,0,1.642,0.735,1.642,1.641v2.862c2.644,0.891,4.907,2.494,6.598,4.562V1.642
		C25.834,0.735,26.57,0,27.476,0c0.907,0,1.643,0.735,1.643,1.642v12.674c1.69-2.068,3.953-3.672,6.598-4.562V6.891
		c0-0.905,0.734-1.641,1.641-1.641C38.264,5.25,39,5.985,39,6.891 M14.558,22.89c-6.217,0-11.275,5.059-11.275,11.276
		c0,3.012,1.174,5.843,3.305,7.973l20.888,20.896l20.877-20.883c2.139-2.136,3.316-4.971,3.316-7.986
		c0-6.218-5.059-11.276-11.275-11.276c-6.218,0-11.275,5.059-11.277,11.276c0,0.906-0.734,1.641-1.641,1.641
		c-0.907,0-1.642-0.734-1.642-1.641c0-3.012-1.173-5.843-3.302-7.973C20.403,24.063,17.57,22.89,14.558,22.89 M27.476,67
		c-0.436,0-0.853-0.173-1.161-0.481L4.266,44.461C1.515,41.712,0,38.055,0,34.166c0-8.028,6.53-14.56,14.558-14.56
		c3.89,0,7.546,1.515,10.295,4.265c1.068,1.068,1.949,2.271,2.628,3.573c2.433-4.654,7.308-7.838,12.913-7.838
		c8.027,0,14.559,6.531,14.559,14.56c0,3.894-1.52,7.555-4.278,10.308L28.637,66.519C28.33,66.827,27.912,67,27.476,67"/>
</g>
</svg>
