<?xml version="1.0" encoding="utf-8"?>
<!-- Generator: Adobe Illustrator 15.0.0, SVG Export Plug-In . SVG Version: 6.00 Build 0)  -->
<!DOCTYPE svg PUBLIC "-//W3C//DTD SVG 1.1//EN" "http://www.w3.org/Graphics/SVG/1.1/DTD/svg11.dtd">
<svg version="1.1" id="Layer_1" xmlns="http://www.w3.org/2000/svg" xmlns:xlink="http://www.w3.org/1999/xlink" x="0px" y="0px"
	 width="30px" height="30px" viewBox="7 0 30 30" enable-background="new 7 0 30 30" xml:space="preserve">
<g>
	<path fill="#ABA7A6" d="M34,6H10C8.343,6,7,4.657,7,3s1.343-3,3-3h24c1.657,0,3,1.343,3,3S35.657,6,34,6z"/>
	<path fill="#ABA7A6" d="M34,18H10c-1.657,0-3-1.343-3-3c0-1.657,1.343-3,3-3h24c1.657,0,3,1.343,3,3C37,16.657,35.657,18,34,18z"/>
	<path fill="#ABA7A6" d="M34,30H10c-1.657,0-3-1.343-3-3s1.343-3,3-3h24c1.657,0,3,1.343,3,3S35.657,30,34,30z"/>
</g>
</svg>
