<svg version="1.1" id="Layer_1" xmlns="http://www.w3.org/2000/svg" xmlns:xlink="http://www.w3.org/1999/xlink" x="0px" y="0px"
	 width="45.486px" height="10.818px" viewBox="0 0 45.486 10.818" enable-background="new 0 0 45.486 10.818" xml:space="preserve">
<g>
	<defs>
		<rect width="45.486" height="10.818"/>
	</defs>
	<path fill="#FFFFFF" d="M43.056,0v6.354c0,1.529-0.396,2.43-1.943,2.43c-1.53,0-1.927-0.9-1.927-2.412
		V0h-2.447v7.057c0,2.861,2.034,3.762,4.374,3.762c2.357,0,4.374-0.9,4.374-3.762V0H43.056z M26.442,0h-2.305v10.603h2.448V6.391
		c0-1.53-0.108-2.395-0.108-2.395h0.072c0,0,0.324,0.666,1.008,1.566l3.744,5.04h2.232V0h-2.448v4.303c0,1.35,0.054,2.25,0.054,2.25
		h-0.071c0,0-0.288-0.612-0.883-1.423L26.442,0z M21.132,8.479H16.47V6.265h4.104V4.23H16.47V2.124h4.662V0h-7.11v10.603h7.11V8.479
		z M5.85,8.154l1.476-2.43c0.54-0.883,0.792-1.62,0.792-1.62H8.19c0,0-0.09,0.594-0.09,1.8v4.698h2.43V0H8.082L6.066,3.582
		C5.472,4.626,5.31,5.13,5.31,5.13H5.238c0,0-0.144-0.504-0.756-1.548L2.484,0H0v10.603h2.448V5.904c0-1.206-0.108-1.8-0.108-1.8
		h0.072c0,0,0.252,0.737,0.81,1.62l1.458,2.43H5.85z"/>
</g>
</svg>
