<svg version="1.1" xmlns="http://www.w3.org/2000/svg" xmlns:xlink="http://www.w3.org/1999/xlink" x="0px" y="0px"
	 width="54.951px" height="67px" viewBox="0 0 54.951 67" enable-background="new 0 0 54.951 67" xml:space="preserve">
<path display="none" fill="none" stroke="#ABA7A6" stroke-width="6" stroke-linecap="round" d="M46.476,94"/>
<path display="none" fill="none" stroke="#ABA7A6" stroke-width="6" stroke-linecap="round" d="M8.476,94"/>
<path display="none" fill="none" stroke="#ABA7A6" stroke-width="6" stroke-linecap="round" d="M46.476,106"/>
<path display="none" fill="none" stroke="#ABA7A6" stroke-width="6" stroke-linecap="round" d="M8.476,106"/>
<path display="none" fill="none" stroke="#ABA7A6" stroke-width="6" stroke-linecap="round" d="M46.476,118"/>
<path display="none" fill="none" stroke="#ABA7A6" stroke-width="6" stroke-linecap="round" d="M8.476,118"/>
<g>
	<path class="logo" fill="#ABA7A6" d="M35.716,35.1v-0.571c-0.66,0.299-1.284,0.656-1.864,1.067c-0.261,0.221-0.531,0.43-0.807,0.632
		c-2.431,2.082-3.922,5.162-3.928,8.547v0.586C33.087,43.563,35.715,39.6,35.716,35.1 M25.834,45.361v-0.57
		c0-3.391-1.493-6.477-3.927-8.562c-0.276-0.202-0.548-0.413-0.81-0.633c-0.579-0.411-1.203-0.768-1.862-1.067V35.1
		C19.235,39.6,21.864,43.563,25.834,45.361 M19.235,13.279v0.571c0,3.391,1.492,6.476,3.925,8.56
		c0.278,0.203,0.55,0.414,0.812,0.635c0.58,0.41,1.203,0.767,1.862,1.066V23.54C25.834,19.039,23.204,15.077,19.235,13.279
		 M29.117,23.523v0.587c0.659-0.298,1.283-0.655,1.862-1.066c0.262-0.22,0.533-0.431,0.811-0.633
		c2.433-2.085,3.925-5.17,3.926-8.561v-0.571C31.751,15.074,29.124,19.03,29.117,23.523 M23.971,33.669
		c0.58,0.412,1.203,0.768,1.863,1.067v-0.57c0-3.391-1.493-6.476-3.926-8.562c-0.278-0.202-0.55-0.413-0.811-0.635
		c-0.58-0.409-1.203-0.766-1.862-1.065v0.571c0,3.391,1.493,6.477,3.927,8.562C23.439,33.239,23.71,33.448,23.971,33.669
		 M35.716,23.904c-0.66,0.299-1.283,0.656-1.863,1.066c-0.261,0.221-0.532,0.431-0.809,0.634c-2.431,2.082-3.921,5.161-3.927,8.546
		v0.586c0.659-0.299,1.283-0.655,1.863-1.067c0.261-0.221,0.531-0.43,0.809-0.632c2.433-2.085,3.926-5.171,3.927-8.562V23.904z
		 M38.999,6.891v4.094v2.865v7.761v2.864v7.76v0.134V35.1c0,6.31-4.004,11.806-9.882,13.788v16.469c0,0.906-0.734,1.643-1.642,1.643
		c-0.906,0-1.642-0.736-1.642-1.643V48.888c-5.878-1.982-9.882-7.477-9.882-13.788v-2.731v-0.134v-7.76v-2.864V13.85v-2.865V6.891
		c0-0.906,0.734-1.641,1.642-1.641s1.642,0.735,1.642,1.641v2.862c2.645,0.891,4.907,2.494,6.599,4.562V1.642
		C25.834,0.735,26.569,0,27.476,0c0.907,0,1.642,0.735,1.642,1.642v12.673c1.691-2.068,3.954-3.671,6.599-4.562V6.891
		c0-0.906,0.734-1.641,1.641-1.641C38.264,5.25,38.999,5.985,38.999,6.891 M14.558,22.89c-6.217,0-11.275,5.058-11.275,11.276
		c0,3.012,1.175,5.843,3.306,7.973l20.888,20.896l20.877-20.883c2.138-2.135,3.316-4.97,3.316-7.986
		c0-6.218-5.059-11.276-11.275-11.276c-6.218,0-11.276,5.058-11.277,11.276c0,0.906-0.734,1.641-1.641,1.641
		c-0.907,0-1.642-0.735-1.642-1.641c0-3.012-1.174-5.843-3.303-7.973C20.402,24.063,17.569,22.89,14.558,22.89 M27.476,67
		c-0.436,0-0.853-0.173-1.161-0.48L4.266,44.461C1.515,41.712,0,38.055,0,34.166c0-8.028,6.529-14.56,14.558-14.56
		c3.89,0,7.546,1.515,10.295,4.265c1.068,1.068,1.949,2.272,2.628,3.573c2.434-4.654,7.309-7.838,12.913-7.838
		c8.027,0,14.558,6.532,14.558,14.56c0,3.894-1.519,7.555-4.277,10.308L28.637,66.52C28.328,66.827,27.91,67,27.476,67"/>
</g>
</svg>
